<svg width="24" height="24" viewBox="0 0 58 58" fill="none" xmlns="http://www.w3.org/2000/svg">
<path d="M49.3682 9.14159C45.3901 5.16356 40.3218 2.45449 34.8041 1.35696C29.2864 0.25942 23.5672 0.822715 18.3697 2.97561C13.1721 5.1285 8.72972 8.77429 5.6042 13.452C2.47868 18.1296 0.810445 23.6291 0.810447 29.2548C0.810446 34.8806 2.47868 40.3801 5.6042 45.0577C8.72971 49.7354 13.1721 53.3812 18.3697 55.5341C23.5672 57.687 29.2864 58.2503 34.8041 57.1527C40.3218 56.0552 45.3901 53.3461 49.3681 49.3681C54.7025 44.0337 57.6993 36.7988 57.6993 29.2549C57.6993 21.7109 54.7025 14.476 49.3682 9.14159ZM39.8521 38.7709C39.1875 38.7636 38.5523 38.4964 38.0824 38.0265C37.6124 37.5566 37.3452 36.9213 37.3379 36.2568L37.3002 24.7294L19.5251 42.5045C19.0583 42.9712 18.4253 43.2334 17.7652 43.2334C17.1051 43.2334 16.472 42.9712 16.0053 42.5045C15.5385 42.0377 15.2763 41.4046 15.2763 40.7445C15.2763 40.0845 15.5385 39.4514 16.0053 38.9846L33.6044 21.3855L22.4667 21.3855C21.7999 21.3855 21.1604 21.1206 20.6889 20.6492C20.2174 20.1777 19.9525 19.5382 19.9525 18.8714C19.9525 18.2046 20.2174 17.5651 20.6889 17.0936C21.1604 16.6221 21.7999 16.3572 22.4667 16.3572L42.3034 16.4075L42.3411 36.2819C42.3411 36.6088 42.2767 36.9325 42.1516 37.2344C42.0266 37.5364 41.8432 37.8108 41.6121 38.042C41.381 38.2731 41.1066 38.4564 40.8046 38.5815C40.5026 38.7066 40.1789 38.7709 39.8521 38.7709Z" fill="white"/>
</svg>
