<svg width="279" height="276" viewBox="0 0 279 276" fill="none" xmlns="http://www.w3.org/2000/svg">
<g opacity="0.2">
<rect width="20" height="20" rx="10" fill="url(#paint0_linear_212_4888)"/>
<rect x="32" width="20" height="20" rx="10" fill="url(#paint1_linear_212_4888)"/>
<rect x="64" width="20" height="20" rx="10" fill="url(#paint2_linear_212_4888)"/>
<rect x="96" y="20" width="20" height="20" rx="10" transform="rotate(-90 96 20)" fill="url(#paint3_linear_212_4888)"/>
<rect x="128" width="20" height="20" rx="10" fill="url(#paint4_linear_212_4888)"/>
<rect x="160" width="20" height="20" rx="10" fill="url(#paint5_linear_212_4888)"/>
<rect x="192" width="20" height="20" rx="10" fill="url(#paint6_linear_212_4888)"/>
<rect x="224" y="20" width="20" height="20" rx="10" transform="rotate(-90 224 20)" fill="url(#paint7_linear_212_4888)"/>
<rect x="256" width="20" height="20" rx="10" fill="url(#paint8_linear_212_4888)"/>
<rect y="32" width="20" height="20" rx="10" fill="url(#paint9_linear_212_4888)"/>
<rect x="32" y="32" width="20" height="20" rx="10" fill="url(#paint10_linear_212_4888)"/>
<rect x="64" y="52" width="20" height="20" rx="10" transform="rotate(-90 64 52)" fill="url(#paint11_linear_212_4888)"/>
<rect x="96" y="32" width="20" height="20" rx="10" fill="url(#paint12_linear_212_4888)"/>
<rect x="128" y="32" width="20" height="20" rx="10" fill="url(#paint13_linear_212_4888)"/>
<rect x="160" y="32" width="20" height="20" rx="10" fill="url(#paint14_linear_212_4888)"/>
<rect x="192" y="52" width="20" height="20" rx="10" transform="rotate(-90 192 52)" fill="url(#paint15_linear_212_4888)"/>
<rect x="224" y="32" width="20" height="20" rx="10" fill="url(#paint16_linear_212_4888)"/>
<rect x="256" y="32" width="20" height="20" rx="10" fill="url(#paint17_linear_212_4888)"/>
<rect y="64" width="20" height="20" rx="10" fill="url(#paint18_linear_212_4888)"/>
<rect x="32" y="84" width="20" height="20" rx="10" transform="rotate(-90 32 84)" fill="url(#paint19_linear_212_4888)"/>
<rect x="64" y="64" width="20" height="20" rx="10" fill="url(#paint20_linear_212_4888)"/>
<rect x="96" y="64" width="20" height="20" rx="10" fill="url(#paint21_linear_212_4888)"/>
<rect x="128" y="64" width="20" height="20" rx="10" fill="url(#paint22_linear_212_4888)"/>
<rect x="160" y="84" width="20" height="20" rx="10" transform="rotate(-90 160 84)" fill="url(#paint23_linear_212_4888)"/>
<rect x="192" y="64" width="20" height="20" rx="10" fill="url(#paint24_linear_212_4888)"/>
<rect x="224" y="64" width="20" height="20" rx="10" fill="url(#paint25_linear_212_4888)"/>
<rect x="256" y="64" width="20" height="20" rx="10" fill="url(#paint26_linear_212_4888)"/>
<rect y="116" width="20" height="20" rx="10" transform="rotate(-90 0 116)" fill="url(#paint27_linear_212_4888)"/>
<rect x="32" y="96" width="20" height="20" rx="10" fill="url(#paint28_linear_212_4888)"/>
<rect x="64" y="96" width="20" height="20" rx="10" fill="url(#paint29_linear_212_4888)"/>
<rect x="96" y="96" width="20" height="20" rx="10" fill="url(#paint30_linear_212_4888)"/>
<rect x="128" y="116" width="20" height="20" rx="10" transform="rotate(-90 128 116)" fill="url(#paint31_linear_212_4888)"/>
<rect x="160" y="96" width="20" height="20" rx="10" fill="url(#paint32_linear_212_4888)"/>
<rect x="192" y="96" width="20" height="20" rx="10" fill="url(#paint33_linear_212_4888)"/>
<rect x="224" y="96" width="20" height="20" rx="10" fill="url(#paint34_linear_212_4888)"/>
<rect x="256" y="116" width="20" height="20" rx="10" transform="rotate(-90 256 116)" fill="url(#paint35_linear_212_4888)"/>
<rect y="128" width="20" height="20" rx="10" fill="url(#paint36_linear_212_4888)"/>
<rect x="32" y="128" width="20" height="20" rx="10" fill="url(#paint37_linear_212_4888)"/>
<rect x="64" y="128" width="20" height="20" rx="10" fill="url(#paint38_linear_212_4888)"/>
<rect x="96" y="148" width="20" height="20" rx="10" transform="rotate(-90 96 148)" fill="url(#paint39_linear_212_4888)"/>
<g clip-path="url(#clip0_212_4888)">
<rect x="128" y="128" width="20" height="20" rx="10" fill="url(#paint40_linear_212_4888)"/>
<rect x="128" y="128" width="20" height="20" rx="10" fill="url(#paint41_linear_212_4888)"/>
</g>
<rect x="160" y="128" width="20" height="20" rx="10" fill="url(#paint42_linear_212_4888)"/>
<rect x="192" y="128" width="20" height="20" rx="10" fill="url(#paint43_linear_212_4888)"/>
<rect x="224" y="128" width="20" height="20" rx="10" fill="url(#paint44_linear_212_4888)"/>
<rect x="256" y="128" width="20" height="20" rx="10" fill="url(#paint45_linear_212_4888)"/>
<rect y="160" width="20" height="20" rx="10" fill="url(#paint46_linear_212_4888)"/>
<rect x="32" y="180" width="20" height="20" rx="10" transform="rotate(-90 32 180)" fill="url(#paint47_linear_212_4888)"/>
<rect x="64" y="160" width="20" height="20" rx="10" fill="url(#paint48_linear_212_4888)"/>
<rect x="96" y="160" width="20" height="20" rx="10" fill="url(#paint49_linear_212_4888)"/>
<rect x="128" y="160" width="20" height="20" rx="10" fill="url(#paint50_linear_212_4888)"/>
<rect x="160" y="180" width="20" height="20" rx="10" transform="rotate(-90 160 180)" fill="url(#paint51_linear_212_4888)"/>
<rect x="192" y="160" width="20" height="20" rx="10" fill="url(#paint52_linear_212_4888)"/>
<rect x="224" y="180" width="20" height="20" rx="10" transform="rotate(-90 224 180)" fill="url(#paint53_linear_212_4888)"/>
<rect x="256" y="160" width="20" height="20" rx="10" fill="url(#paint54_linear_212_4888)"/>
<rect y="192" width="20" height="20" rx="10" fill="url(#paint55_linear_212_4888)"/>
<rect x="32" y="212" width="20" height="20" rx="10" transform="rotate(-90 32 212)" fill="url(#paint56_linear_212_4888)"/>
<rect x="64" y="192" width="20" height="20" rx="10" fill="url(#paint57_linear_212_4888)"/>
<rect x="96" y="192" width="20" height="20" rx="10" fill="url(#paint58_linear_212_4888)"/>
<rect x="128" y="192" width="20" height="20" rx="10" fill="url(#paint59_linear_212_4888)"/>
<rect x="160" y="212" width="20" height="20" rx="10" transform="rotate(-90 160 212)" fill="url(#paint60_linear_212_4888)"/>
<rect x="192" y="192" width="20" height="20" rx="10" fill="url(#paint61_linear_212_4888)"/>
<rect x="224" y="192" width="20" height="20" rx="10" fill="url(#paint62_linear_212_4888)"/>
<rect x="256" y="192" width="20" height="20" rx="10" fill="url(#paint63_linear_212_4888)"/>
<rect y="244" width="20" height="20" rx="10" transform="rotate(-90 0 244)" fill="url(#paint64_linear_212_4888)"/>
<rect x="32" y="224" width="20" height="20" rx="10" fill="url(#paint65_linear_212_4888)"/>
<rect x="64" y="224" width="20" height="20" rx="10" fill="url(#paint66_linear_212_4888)"/>
<rect x="96" y="224" width="20" height="20" rx="10" fill="url(#paint67_linear_212_4888)"/>
<rect x="128" y="244" width="20" height="20" rx="10" transform="rotate(-90 128 244)" fill="url(#paint68_linear_212_4888)"/>
<rect x="160" y="224" width="20" height="20" rx="10" fill="url(#paint69_linear_212_4888)"/>
<rect x="192" y="224" width="20" height="20" rx="10" fill="url(#paint70_linear_212_4888)"/>
<rect x="224" y="224" width="20" height="20" rx="10" fill="url(#paint71_linear_212_4888)"/>
<rect x="256" y="244" width="20" height="20" rx="10" transform="rotate(-90 256 244)" fill="url(#paint72_linear_212_4888)"/>
<rect y="256" width="20" height="20" rx="10" fill="url(#paint73_linear_212_4888)"/>
<rect x="32" y="256" width="20" height="20" rx="10" fill="url(#paint74_linear_212_4888)"/>
<rect x="64" y="256" width="20" height="20" rx="10" fill="url(#paint75_linear_212_4888)"/>
<rect x="96" y="276" width="20" height="20" rx="10" transform="rotate(-90 96 276)" fill="url(#paint76_linear_212_4888)"/>
<rect x="128" y="256" width="20" height="20" rx="10" fill="url(#paint77_linear_212_4888)"/>
<rect x="160" y="256" width="20" height="20" rx="10" fill="url(#paint78_linear_212_4888)"/>
<rect x="192" y="256" width="20" height="20" rx="10" fill="url(#paint79_linear_212_4888)"/>
<rect x="224" y="276" width="20" height="20" rx="10" transform="rotate(-90 224 276)" fill="url(#paint80_linear_212_4888)"/>
<rect x="256" y="276" width="20" height="20" rx="10" transform="rotate(-90 256 276)" fill="url(#paint81_linear_212_4888)"/>
</g>
<defs>
<linearGradient id="paint0_linear_212_4888" x1="20" y1="20" x2="-4.35842" y2="6.96046" gradientUnits="userSpaceOnUse">
<stop stop-color="#EE0979"/>
<stop offset="1" stop-color="#FF6A00"/>
</linearGradient>
<linearGradient id="paint1_linear_212_4888" x1="52" y1="20" x2="27.6416" y2="6.96046" gradientUnits="userSpaceOnUse">
<stop stop-color="#EE0979"/>
<stop offset="1" stop-color="#FF6A00"/>
</linearGradient>
<linearGradient id="paint2_linear_212_4888" x1="84" y1="20" x2="59.6416" y2="6.96046" gradientUnits="userSpaceOnUse">
<stop stop-color="#EE0979"/>
<stop offset="1" stop-color="#FF6A00"/>
</linearGradient>
<linearGradient id="paint3_linear_212_4888" x1="116" y1="40" x2="91.6416" y2="26.9605" gradientUnits="userSpaceOnUse">
<stop stop-color="#EE0979"/>
<stop offset="1" stop-color="#FF6A00"/>
</linearGradient>
<linearGradient id="paint4_linear_212_4888" x1="148" y1="20" x2="123.642" y2="6.96046" gradientUnits="userSpaceOnUse">
<stop stop-color="#EE0979"/>
<stop offset="1" stop-color="#FF6A00"/>
</linearGradient>
<linearGradient id="paint5_linear_212_4888" x1="180" y1="20" x2="155.642" y2="6.96046" gradientUnits="userSpaceOnUse">
<stop stop-color="#EE0979"/>
<stop offset="1" stop-color="#FF6A00"/>
</linearGradient>
<linearGradient id="paint6_linear_212_4888" x1="212" y1="20" x2="187.642" y2="6.96046" gradientUnits="userSpaceOnUse">
<stop stop-color="#EE0979"/>
<stop offset="1" stop-color="#FF6A00"/>
</linearGradient>
<linearGradient id="paint7_linear_212_4888" x1="244" y1="40" x2="219.642" y2="26.9605" gradientUnits="userSpaceOnUse">
<stop stop-color="#EE0979"/>
<stop offset="1" stop-color="#FF6A00"/>
</linearGradient>
<linearGradient id="paint8_linear_212_4888" x1="276" y1="20" x2="251.642" y2="6.96046" gradientUnits="userSpaceOnUse">
<stop stop-color="#EE0979"/>
<stop offset="1" stop-color="#FF6A00"/>
</linearGradient>
<linearGradient id="paint9_linear_212_4888" x1="20" y1="52" x2="-4.35842" y2="38.9605" gradientUnits="userSpaceOnUse">
<stop stop-color="#EE0979"/>
<stop offset="1" stop-color="#FF6A00"/>
</linearGradient>
<linearGradient id="paint10_linear_212_4888" x1="52" y1="52" x2="27.6416" y2="38.9605" gradientUnits="userSpaceOnUse">
<stop stop-color="#EE0979"/>
<stop offset="1" stop-color="#FF6A00"/>
</linearGradient>
<linearGradient id="paint11_linear_212_4888" x1="84" y1="72" x2="59.6416" y2="58.9605" gradientUnits="userSpaceOnUse">
<stop stop-color="#EE0979"/>
<stop offset="1" stop-color="#FF6A00"/>
</linearGradient>
<linearGradient id="paint12_linear_212_4888" x1="116" y1="52" x2="91.6416" y2="38.9605" gradientUnits="userSpaceOnUse">
<stop stop-color="#EE0979"/>
<stop offset="1" stop-color="#FF6A00"/>
</linearGradient>
<linearGradient id="paint13_linear_212_4888" x1="148" y1="52" x2="123.642" y2="38.9605" gradientUnits="userSpaceOnUse">
<stop stop-color="#EE0979"/>
<stop offset="1" stop-color="#FF6A00"/>
</linearGradient>
<linearGradient id="paint14_linear_212_4888" x1="180" y1="52" x2="155.642" y2="38.9605" gradientUnits="userSpaceOnUse">
<stop stop-color="#EE0979"/>
<stop offset="1" stop-color="#FF6A00"/>
</linearGradient>
<linearGradient id="paint15_linear_212_4888" x1="212" y1="72" x2="187.642" y2="58.9605" gradientUnits="userSpaceOnUse">
<stop stop-color="#EE0979"/>
<stop offset="1" stop-color="#FF6A00"/>
</linearGradient>
<linearGradient id="paint16_linear_212_4888" x1="244" y1="52" x2="219.642" y2="38.9605" gradientUnits="userSpaceOnUse">
<stop stop-color="#EE0979"/>
<stop offset="1" stop-color="#FF6A00"/>
</linearGradient>
<linearGradient id="paint17_linear_212_4888" x1="276" y1="52" x2="251.642" y2="38.9605" gradientUnits="userSpaceOnUse">
<stop stop-color="#EE0979"/>
<stop offset="1" stop-color="#FF6A00"/>
</linearGradient>
<linearGradient id="paint18_linear_212_4888" x1="20" y1="84" x2="-4.35842" y2="70.9605" gradientUnits="userSpaceOnUse">
<stop stop-color="#EE0979"/>
<stop offset="1" stop-color="#FF6A00"/>
</linearGradient>
<linearGradient id="paint19_linear_212_4888" x1="52" y1="104" x2="27.6416" y2="90.9605" gradientUnits="userSpaceOnUse">
<stop stop-color="#EE0979"/>
<stop offset="1" stop-color="#FF6A00"/>
</linearGradient>
<linearGradient id="paint20_linear_212_4888" x1="84" y1="84" x2="59.6416" y2="70.9605" gradientUnits="userSpaceOnUse">
<stop stop-color="#EE0979"/>
<stop offset="1" stop-color="#FF6A00"/>
</linearGradient>
<linearGradient id="paint21_linear_212_4888" x1="116" y1="84" x2="91.6416" y2="70.9605" gradientUnits="userSpaceOnUse">
<stop stop-color="#EE0979"/>
<stop offset="1" stop-color="#FF6A00"/>
</linearGradient>
<linearGradient id="paint22_linear_212_4888" x1="148" y1="84" x2="123.642" y2="70.9605" gradientUnits="userSpaceOnUse">
<stop stop-color="#EE0979"/>
<stop offset="1" stop-color="#FF6A00"/>
</linearGradient>
<linearGradient id="paint23_linear_212_4888" x1="180" y1="104" x2="155.642" y2="90.9605" gradientUnits="userSpaceOnUse">
<stop stop-color="#EE0979"/>
<stop offset="1" stop-color="#FF6A00"/>
</linearGradient>
<linearGradient id="paint24_linear_212_4888" x1="212" y1="84" x2="187.642" y2="70.9605" gradientUnits="userSpaceOnUse">
<stop stop-color="#EE0979"/>
<stop offset="1" stop-color="#FF6A00"/>
</linearGradient>
<linearGradient id="paint25_linear_212_4888" x1="244" y1="84" x2="219.642" y2="70.9605" gradientUnits="userSpaceOnUse">
<stop stop-color="#EE0979"/>
<stop offset="1" stop-color="#FF6A00"/>
</linearGradient>
<linearGradient id="paint26_linear_212_4888" x1="276" y1="84" x2="251.642" y2="70.9605" gradientUnits="userSpaceOnUse">
<stop stop-color="#EE0979"/>
<stop offset="1" stop-color="#FF6A00"/>
</linearGradient>
<linearGradient id="paint27_linear_212_4888" x1="20" y1="136" x2="-4.35842" y2="122.96" gradientUnits="userSpaceOnUse">
<stop stop-color="#EE0979"/>
<stop offset="1" stop-color="#FF6A00"/>
</linearGradient>
<linearGradient id="paint28_linear_212_4888" x1="52" y1="116" x2="27.6416" y2="102.96" gradientUnits="userSpaceOnUse">
<stop stop-color="#EE0979"/>
<stop offset="1" stop-color="#FF6A00"/>
</linearGradient>
<linearGradient id="paint29_linear_212_4888" x1="84" y1="116" x2="59.6416" y2="102.96" gradientUnits="userSpaceOnUse">
<stop stop-color="#EE0979"/>
<stop offset="1" stop-color="#FF6A00"/>
</linearGradient>
<linearGradient id="paint30_linear_212_4888" x1="116" y1="116" x2="91.6416" y2="102.96" gradientUnits="userSpaceOnUse">
<stop stop-color="#EE0979"/>
<stop offset="1" stop-color="#FF6A00"/>
</linearGradient>
<linearGradient id="paint31_linear_212_4888" x1="148" y1="136" x2="123.642" y2="122.96" gradientUnits="userSpaceOnUse">
<stop stop-color="#EE0979"/>
<stop offset="1" stop-color="#FF6A00"/>
</linearGradient>
<linearGradient id="paint32_linear_212_4888" x1="180" y1="116" x2="155.642" y2="102.96" gradientUnits="userSpaceOnUse">
<stop stop-color="#EE0979"/>
<stop offset="1" stop-color="#FF6A00"/>
</linearGradient>
<linearGradient id="paint33_linear_212_4888" x1="212" y1="116" x2="187.642" y2="102.96" gradientUnits="userSpaceOnUse">
<stop stop-color="#EE0979"/>
<stop offset="1" stop-color="#FF6A00"/>
</linearGradient>
<linearGradient id="paint34_linear_212_4888" x1="244" y1="116" x2="219.642" y2="102.96" gradientUnits="userSpaceOnUse">
<stop stop-color="#EE0979"/>
<stop offset="1" stop-color="#FF6A00"/>
</linearGradient>
<linearGradient id="paint35_linear_212_4888" x1="276" y1="136" x2="251.642" y2="122.96" gradientUnits="userSpaceOnUse">
<stop stop-color="#EE0979"/>
<stop offset="1" stop-color="#FF6A00"/>
</linearGradient>
<linearGradient id="paint36_linear_212_4888" x1="20" y1="148" x2="-4.35842" y2="134.96" gradientUnits="userSpaceOnUse">
<stop stop-color="#EE0979"/>
<stop offset="1" stop-color="#FF6A00"/>
</linearGradient>
<linearGradient id="paint37_linear_212_4888" x1="52" y1="148" x2="27.6416" y2="134.96" gradientUnits="userSpaceOnUse">
<stop stop-color="#EE0979"/>
<stop offset="1" stop-color="#FF6A00"/>
</linearGradient>
<linearGradient id="paint38_linear_212_4888" x1="84" y1="148" x2="59.6416" y2="134.96" gradientUnits="userSpaceOnUse">
<stop stop-color="#EE0979"/>
<stop offset="1" stop-color="#FF6A00"/>
</linearGradient>
<linearGradient id="paint39_linear_212_4888" x1="116" y1="168" x2="91.6416" y2="154.96" gradientUnits="userSpaceOnUse">
<stop stop-color="#EE0979"/>
<stop offset="1" stop-color="#FF6A00"/>
</linearGradient>
<linearGradient id="paint40_linear_212_4888" x1="148" y1="148" x2="123.642" y2="134.96" gradientUnits="userSpaceOnUse">
<stop stop-color="#EE0979"/>
<stop offset="1" stop-color="#FF6A00"/>
</linearGradient>
<linearGradient id="paint41_linear_212_4888" x1="148" y1="148" x2="123.642" y2="134.96" gradientUnits="userSpaceOnUse">
<stop stop-color="#EE0979"/>
<stop offset="1" stop-color="#FF6A00"/>
</linearGradient>
<linearGradient id="paint42_linear_212_4888" x1="180" y1="148" x2="155.642" y2="134.96" gradientUnits="userSpaceOnUse">
<stop stop-color="#EE0979"/>
<stop offset="1" stop-color="#FF6A00"/>
</linearGradient>
<linearGradient id="paint43_linear_212_4888" x1="212" y1="148" x2="187.642" y2="134.96" gradientUnits="userSpaceOnUse">
<stop stop-color="#EE0979"/>
<stop offset="1" stop-color="#FF6A00"/>
</linearGradient>
<linearGradient id="paint44_linear_212_4888" x1="244" y1="148" x2="219.642" y2="134.96" gradientUnits="userSpaceOnUse">
<stop stop-color="#EE0979"/>
<stop offset="1" stop-color="#FF6A00"/>
</linearGradient>
<linearGradient id="paint45_linear_212_4888" x1="276" y1="148" x2="251.642" y2="134.96" gradientUnits="userSpaceOnUse">
<stop stop-color="#EE0979"/>
<stop offset="1" stop-color="#FF6A00"/>
</linearGradient>
<linearGradient id="paint46_linear_212_4888" x1="20" y1="180" x2="-4.35842" y2="166.96" gradientUnits="userSpaceOnUse">
<stop stop-color="#EE0979"/>
<stop offset="1" stop-color="#FF6A00"/>
</linearGradient>
<linearGradient id="paint47_linear_212_4888" x1="52" y1="200" x2="27.6416" y2="186.96" gradientUnits="userSpaceOnUse">
<stop stop-color="#EE0979"/>
<stop offset="1" stop-color="#FF6A00"/>
</linearGradient>
<linearGradient id="paint48_linear_212_4888" x1="84" y1="180" x2="59.6416" y2="166.96" gradientUnits="userSpaceOnUse">
<stop stop-color="#EE0979"/>
<stop offset="1" stop-color="#FF6A00"/>
</linearGradient>
<linearGradient id="paint49_linear_212_4888" x1="116" y1="180" x2="91.6416" y2="166.96" gradientUnits="userSpaceOnUse">
<stop stop-color="#EE0979"/>
<stop offset="1" stop-color="#FF6A00"/>
</linearGradient>
<linearGradient id="paint50_linear_212_4888" x1="148" y1="180" x2="123.642" y2="166.96" gradientUnits="userSpaceOnUse">
<stop stop-color="#EE0979"/>
<stop offset="1" stop-color="#FF6A00"/>
</linearGradient>
<linearGradient id="paint51_linear_212_4888" x1="180" y1="200" x2="155.642" y2="186.96" gradientUnits="userSpaceOnUse">
<stop stop-color="#EE0979"/>
<stop offset="1" stop-color="#FF6A00"/>
</linearGradient>
<linearGradient id="paint52_linear_212_4888" x1="212" y1="180" x2="187.642" y2="166.96" gradientUnits="userSpaceOnUse">
<stop stop-color="#EE0979"/>
<stop offset="1" stop-color="#FF6A00"/>
</linearGradient>
<linearGradient id="paint53_linear_212_4888" x1="244" y1="200" x2="219.642" y2="186.96" gradientUnits="userSpaceOnUse">
<stop stop-color="#EE0979"/>
<stop offset="1" stop-color="#FF6A00"/>
</linearGradient>
<linearGradient id="paint54_linear_212_4888" x1="276" y1="180" x2="251.642" y2="166.96" gradientUnits="userSpaceOnUse">
<stop stop-color="#EE0979"/>
<stop offset="1" stop-color="#FF6A00"/>
</linearGradient>
<linearGradient id="paint55_linear_212_4888" x1="20" y1="212" x2="-4.35842" y2="198.96" gradientUnits="userSpaceOnUse">
<stop stop-color="#EE0979"/>
<stop offset="1" stop-color="#FF6A00"/>
</linearGradient>
<linearGradient id="paint56_linear_212_4888" x1="52" y1="232" x2="27.6416" y2="218.96" gradientUnits="userSpaceOnUse">
<stop stop-color="#EE0979"/>
<stop offset="1" stop-color="#FF6A00"/>
</linearGradient>
<linearGradient id="paint57_linear_212_4888" x1="84" y1="212" x2="59.6416" y2="198.96" gradientUnits="userSpaceOnUse">
<stop stop-color="#EE0979"/>
<stop offset="1" stop-color="#FF6A00"/>
</linearGradient>
<linearGradient id="paint58_linear_212_4888" x1="116" y1="212" x2="91.6416" y2="198.96" gradientUnits="userSpaceOnUse">
<stop stop-color="#EE0979"/>
<stop offset="1" stop-color="#FF6A00"/>
</linearGradient>
<linearGradient id="paint59_linear_212_4888" x1="148" y1="212" x2="123.642" y2="198.96" gradientUnits="userSpaceOnUse">
<stop stop-color="#EE0979"/>
<stop offset="1" stop-color="#FF6A00"/>
</linearGradient>
<linearGradient id="paint60_linear_212_4888" x1="180" y1="232" x2="155.642" y2="218.96" gradientUnits="userSpaceOnUse">
<stop stop-color="#EE0979"/>
<stop offset="1" stop-color="#FF6A00"/>
</linearGradient>
<linearGradient id="paint61_linear_212_4888" x1="212" y1="212" x2="187.642" y2="198.96" gradientUnits="userSpaceOnUse">
<stop stop-color="#EE0979"/>
<stop offset="1" stop-color="#FF6A00"/>
</linearGradient>
<linearGradient id="paint62_linear_212_4888" x1="244" y1="212" x2="219.642" y2="198.96" gradientUnits="userSpaceOnUse">
<stop stop-color="#EE0979"/>
<stop offset="1" stop-color="#FF6A00"/>
</linearGradient>
<linearGradient id="paint63_linear_212_4888" x1="276" y1="212" x2="251.642" y2="198.96" gradientUnits="userSpaceOnUse">
<stop stop-color="#EE0979"/>
<stop offset="1" stop-color="#FF6A00"/>
</linearGradient>
<linearGradient id="paint64_linear_212_4888" x1="20" y1="264" x2="-4.35842" y2="250.96" gradientUnits="userSpaceOnUse">
<stop stop-color="#EE0979"/>
<stop offset="1" stop-color="#FF6A00"/>
</linearGradient>
<linearGradient id="paint65_linear_212_4888" x1="52" y1="244" x2="27.6416" y2="230.96" gradientUnits="userSpaceOnUse">
<stop stop-color="#EE0979"/>
<stop offset="1" stop-color="#FF6A00"/>
</linearGradient>
<linearGradient id="paint66_linear_212_4888" x1="84" y1="244" x2="59.6416" y2="230.96" gradientUnits="userSpaceOnUse">
<stop stop-color="#EE0979"/>
<stop offset="1" stop-color="#FF6A00"/>
</linearGradient>
<linearGradient id="paint67_linear_212_4888" x1="116" y1="244" x2="91.6416" y2="230.96" gradientUnits="userSpaceOnUse">
<stop stop-color="#EE0979"/>
<stop offset="1" stop-color="#FF6A00"/>
</linearGradient>
<linearGradient id="paint68_linear_212_4888" x1="148" y1="264" x2="123.642" y2="250.96" gradientUnits="userSpaceOnUse">
<stop stop-color="#EE0979"/>
<stop offset="1" stop-color="#FF6A00"/>
</linearGradient>
<linearGradient id="paint69_linear_212_4888" x1="180" y1="244" x2="155.642" y2="230.96" gradientUnits="userSpaceOnUse">
<stop stop-color="#EE0979"/>
<stop offset="1" stop-color="#FF6A00"/>
</linearGradient>
<linearGradient id="paint70_linear_212_4888" x1="212" y1="244" x2="187.642" y2="230.96" gradientUnits="userSpaceOnUse">
<stop stop-color="#EE0979"/>
<stop offset="1" stop-color="#FF6A00"/>
</linearGradient>
<linearGradient id="paint71_linear_212_4888" x1="244" y1="244" x2="219.642" y2="230.96" gradientUnits="userSpaceOnUse">
<stop stop-color="#EE0979"/>
<stop offset="1" stop-color="#FF6A00"/>
</linearGradient>
<linearGradient id="paint72_linear_212_4888" x1="276" y1="264" x2="251.642" y2="250.96" gradientUnits="userSpaceOnUse">
<stop stop-color="#EE0979"/>
<stop offset="1" stop-color="#FF6A00"/>
</linearGradient>
<linearGradient id="paint73_linear_212_4888" x1="20" y1="276" x2="-4.35842" y2="262.96" gradientUnits="userSpaceOnUse">
<stop stop-color="#EE0979"/>
<stop offset="1" stop-color="#FF6A00"/>
</linearGradient>
<linearGradient id="paint74_linear_212_4888" x1="52" y1="276" x2="27.6416" y2="262.96" gradientUnits="userSpaceOnUse">
<stop stop-color="#EE0979"/>
<stop offset="1" stop-color="#FF6A00"/>
</linearGradient>
<linearGradient id="paint75_linear_212_4888" x1="84" y1="276" x2="59.6416" y2="262.96" gradientUnits="userSpaceOnUse">
<stop stop-color="#EE0979"/>
<stop offset="1" stop-color="#FF6A00"/>
</linearGradient>
<linearGradient id="paint76_linear_212_4888" x1="116" y1="296" x2="91.6416" y2="282.96" gradientUnits="userSpaceOnUse">
<stop stop-color="#EE0979"/>
<stop offset="1" stop-color="#FF6A00"/>
</linearGradient>
<linearGradient id="paint77_linear_212_4888" x1="148" y1="276" x2="123.642" y2="262.96" gradientUnits="userSpaceOnUse">
<stop stop-color="#EE0979"/>
<stop offset="1" stop-color="#FF6A00"/>
</linearGradient>
<linearGradient id="paint78_linear_212_4888" x1="180" y1="276" x2="155.642" y2="262.96" gradientUnits="userSpaceOnUse">
<stop stop-color="#EE0979"/>
<stop offset="1" stop-color="#FF6A00"/>
</linearGradient>
<linearGradient id="paint79_linear_212_4888" x1="212" y1="276" x2="187.642" y2="262.96" gradientUnits="userSpaceOnUse">
<stop stop-color="#EE0979"/>
<stop offset="1" stop-color="#FF6A00"/>
</linearGradient>
<linearGradient id="paint80_linear_212_4888" x1="244" y1="296" x2="219.642" y2="282.96" gradientUnits="userSpaceOnUse">
<stop stop-color="#EE0979"/>
<stop offset="1" stop-color="#FF6A00"/>
</linearGradient>
<linearGradient id="paint81_linear_212_4888" x1="276" y1="296" x2="251.642" y2="282.96" gradientUnits="userSpaceOnUse">
<stop stop-color="#EE0979"/>
<stop offset="1" stop-color="#FF6A00"/>
</linearGradient>
<clipPath id="clip0_212_4888">
<rect x="128" y="128" width="20" height="20" rx="10" fill="white"/>
</clipPath>
</defs>
</svg>
