<svg width="1512" height="464" viewBox="0 0 1512 464" fill="none" xmlns="http://www.w3.org/2000/svg">
<path opacity="0.17" d="M0 307.228C252 279.582 504 313.608 756 409.304C1008 505 1260 470.975 1512 307.228" stroke="url(#paint0_linear_212_6633)" stroke-width="2" stroke-linecap="round"/>
<path opacity="0.55" d="M0 298.722C252 276.747 504 313.608 756 409.304C1008 505 1260 468.139 1512 298.722" stroke="url(#paint1_linear_212_6633)" stroke-width="2" stroke-linecap="round"/>
<path opacity="0.77" d="M0 290.215C252 273.911 504 313.608 756 409.304C1008 505 1260 465.304 1512 290.215" stroke="url(#paint2_linear_212_6633)" stroke-width="2" stroke-linecap="round"/>
<path opacity="0.63" d="M0 281.709C252 271.076 504 313.608 756 409.304C1008 505 1260 462.468 1512 281.709" stroke="url(#paint3_linear_212_6633)" stroke-width="2" stroke-linecap="round"/>
<path opacity="0.95" d="M0 273.203C252 268.241 504 313.608 756 409.304C1008 505 1260 459.633 1512 273.203" stroke="url(#paint4_linear_212_6633)" stroke-width="2" stroke-linecap="round"/>
<path opacity="0.59" d="M0 264.696C252 265.405 504 313.608 756 409.304C1008 505 1260 456.797 1512 264.696" stroke="url(#paint5_linear_212_6633)" stroke-width="2" stroke-linecap="round"/>
<path opacity="0.45" d="M0 256.19C252 262.57 504 313.608 756 409.304C1008 505 1260 453.962 1512 256.19" stroke="url(#paint6_linear_212_6633)" stroke-width="2" stroke-linecap="round"/>
<path opacity="0.09" d="M0 247.684C252 259.734 504 313.608 756 409.304C1008 505 1260 451.127 1512 247.684" stroke="url(#paint7_linear_212_6633)" stroke-width="2" stroke-linecap="round"/>
<path opacity="0.67" d="M0 239.177C252 256.899 504 313.608 756 409.304C1008 505 1260 448.291 1512 239.177" stroke="url(#paint8_linear_212_6633)" stroke-width="2" stroke-linecap="round"/>
<path opacity="0.41" d="M0 230.671C252 254.063 504 313.608 756 409.304C1008 505 1260 445.456 1512 230.671" stroke="url(#paint9_linear_212_6633)" stroke-width="2" stroke-linecap="round"/>
<path opacity="0.42" d="M0 222.165C252 251.228 504 313.608 756 409.304C1008 505 1260 442.62 1512 222.165" stroke="url(#paint10_linear_212_6633)" stroke-width="2" stroke-linecap="round"/>
<path opacity="0.18" d="M0 213.658C252 248.392 504 313.608 756 409.304C1008 505 1260 439.785 1512 213.658" stroke="url(#paint11_linear_212_6633)" stroke-width="2" stroke-linecap="round"/>
<path opacity="0.94" d="M0 205.152C252 245.557 504 313.608 756 409.304C1008 505 1260 436.949 1512 205.152" stroke="url(#paint12_linear_212_6633)" stroke-width="2" stroke-linecap="round"/>
<path opacity="0.56" d="M0 196.646C252 242.722 504 313.608 756 409.304C1008 505 1260 434.114 1512 196.646" stroke="url(#paint13_linear_212_6633)" stroke-width="2" stroke-linecap="round"/>
<path opacity="0.73" d="M0 188.139C252 239.886 504 313.608 756 409.304C1008 505 1260 431.278 1512 188.139" stroke="url(#paint14_linear_212_6633)" stroke-width="2" stroke-linecap="round"/>
<path opacity="0.35" d="M0 179.633C252 237.051 504 313.608 756 409.304C1008 505 1260 428.443 1512 179.633" stroke="url(#paint15_linear_212_6633)" stroke-width="2" stroke-linecap="round"/>
<path opacity="0.96" d="M0 171.127C252 234.215 504 313.608 756 409.304C1008 505 1260 425.608 1512 171.127" stroke="url(#paint16_linear_212_6633)" stroke-width="2" stroke-linecap="round"/>
<path opacity="0.87" d="M0 162.62C252 231.38 504 313.608 756 409.304C1008 505 1260 422.772 1512 162.62" stroke="url(#paint17_linear_212_6633)" stroke-width="2" stroke-linecap="round"/>
<path opacity="0.55" d="M0 154.114C252 228.544 504 313.608 756 409.304C1008 505 1260 419.937 1512 154.114" stroke="url(#paint18_linear_212_6633)" stroke-width="2" stroke-linecap="round"/>
<path opacity="0.99" d="M0 145.608C252 225.709 504 313.608 756 409.304C1008 505 1260 417.101 1512 145.608" stroke="url(#paint19_linear_212_6633)" stroke-width="2" stroke-linecap="round"/>
<path opacity="0.72" d="M0 137.101C252 222.873 504 313.608 756 409.304C1008 505 1260 414.266 1512 137.101" stroke="url(#paint20_linear_212_6633)" stroke-width="2" stroke-linecap="round"/>
<path opacity="0.61" d="M0 128.595C252 220.038 504 313.608 756 409.304C1008 505 1260 411.43 1512 128.595" stroke="url(#paint21_linear_212_6633)" stroke-width="2" stroke-linecap="round"/>
<path opacity="0.15" d="M0 120.089C252 217.203 504 313.608 756 409.304C1008 505 1260 408.595 1512 120.089" stroke="url(#paint22_linear_212_6633)" stroke-width="2" stroke-linecap="round"/>
<path opacity="0.58" d="M0 111.582C252 214.367 504 313.608 756 409.304C1008 505 1260 405.759 1512 111.582" stroke="url(#paint23_linear_212_6633)" stroke-width="2" stroke-linecap="round"/>
<path opacity="0.27" d="M0 103.076C252 211.532 504 313.608 756 409.304C1008 505 1260 402.924 1512 103.076" stroke="url(#paint24_linear_212_6633)" stroke-width="2" stroke-linecap="round"/>
<path opacity="0.17" d="M0 94.5696C252 208.696 504 313.608 756 409.304C1008 505 1260 400.089 1512 94.5696" stroke="url(#paint25_linear_212_6633)" stroke-width="2" stroke-linecap="round"/>
<path opacity="0.71" d="M0 86.0633C252 205.861 504 313.608 756 409.304C1008 505 1260 397.253 1512 86.0633" stroke="url(#paint26_linear_212_6633)" stroke-width="2" stroke-linecap="round"/>
<path opacity="0.38" d="M0 77.557C252 203.025 504 313.608 756 409.304C1008 505 1260 394.418 1512 77.557" stroke="url(#paint27_linear_212_6633)" stroke-width="2" stroke-linecap="round"/>
<path opacity="0.55" d="M0 69.0506C252 200.19 504 313.608 756 409.304C1008 505 1260 391.582 1512 69.0506" stroke="url(#paint28_linear_212_6633)" stroke-width="2" stroke-linecap="round"/>
<path opacity="0.79" d="M0 60.5443C252 197.354 504 313.608 756 409.304C1008 505 1260 388.747 1512 60.5443" stroke="url(#paint29_linear_212_6633)" stroke-width="2" stroke-linecap="round"/>
<path opacity="0.23" d="M0 52.038C252 194.519 504 313.608 756 409.304C1008 505 1260 385.911 1512 52.038" stroke="url(#paint30_linear_212_6633)" stroke-width="2" stroke-linecap="round"/>
<path opacity="0.59" d="M0 43.5316C252 191.684 504 313.608 756 409.304C1008 505 1260 383.076 1512 43.5316" stroke="url(#paint31_linear_212_6633)" stroke-width="2" stroke-linecap="round"/>
<path opacity="0.16" d="M0 35.0253C252 188.848 504 313.608 756 409.304C1008 505 1260 380.241 1512 35.0253" stroke="url(#paint32_linear_212_6633)" stroke-width="2" stroke-linecap="round"/>
<path opacity="0.09" d="M0 26.519C252 186.013 504 313.608 756 409.304C1008 505 1260 377.405 1512 26.519" stroke="url(#paint33_linear_212_6633)" stroke-width="2" stroke-linecap="round"/>
<path opacity="0.94" d="M0 18.0126C252 183.177 504 313.608 756 409.304C1008 505 1260 374.57 1512 18.0126" stroke="url(#paint34_linear_212_6633)" stroke-width="2" stroke-linecap="round"/>
<path opacity="0.72" d="M0 9.50633C252 180.342 504 313.608 756 409.304C1008 505 1260 371.734 1512 9.50633" stroke="url(#paint35_linear_212_6633)" stroke-width="2" stroke-linecap="round"/>
<path opacity="0.86" d="M0 1C252 177.506 504 313.608 756 409.304C1008 505 1260 368.899 1512 1" stroke="url(#paint36_linear_212_6633)" stroke-width="2" stroke-linecap="round"/>
<defs>
<linearGradient id="paint0_linear_212_6633" x1="1512" y1="462.25" x2="1418.22" y2="0.314298" gradientUnits="userSpaceOnUse">
<stop stop-color="#EE0979"/>
<stop offset="1" stop-color="#FF6A00"/>
</linearGradient>
<linearGradient id="paint1_linear_212_6633" x1="1512" y1="461.118" x2="1413.53" y2="-11.7458" gradientUnits="userSpaceOnUse">
<stop stop-color="#EE0979"/>
<stop offset="1" stop-color="#FF6A00"/>
</linearGradient>
<linearGradient id="paint2_linear_212_6633" x1="1512" y1="460.033" x2="1408.06" y2="-25.1978" gradientUnits="userSpaceOnUse">
<stop stop-color="#EE0979"/>
<stop offset="1" stop-color="#FF6A00"/>
</linearGradient>
<linearGradient id="paint3_linear_212_6633" x1="1512" y1="458.992" x2="1401.67" y2="-40.2214" gradientUnits="userSpaceOnUse">
<stop stop-color="#EE0979"/>
<stop offset="1" stop-color="#FF6A00"/>
</linearGradient>
<linearGradient id="paint4_linear_212_6633" x1="1512" y1="457.993" x2="1394.18" y2="-57.0316" gradientUnits="userSpaceOnUse">
<stop stop-color="#EE0979"/>
<stop offset="1" stop-color="#FF6A00"/>
</linearGradient>
<linearGradient id="paint5_linear_212_6633" x1="1512" y1="457.034" x2="1385.37" y2="-75.8675" gradientUnits="userSpaceOnUse">
<stop stop-color="#EE0979"/>
<stop offset="1" stop-color="#FF6A00"/>
</linearGradient>
<linearGradient id="paint6_linear_212_6633" x1="1512" y1="456.112" x2="1375.77" y2="-95.4318" gradientUnits="userSpaceOnUse">
<stop stop-color="#EE0979"/>
<stop offset="1" stop-color="#FF6A00"/>
</linearGradient>
<linearGradient id="paint7_linear_212_6633" x1="1512" y1="455.224" x2="1365.84" y2="-114.793" gradientUnits="userSpaceOnUse">
<stop stop-color="#EE0979"/>
<stop offset="1" stop-color="#FF6A00"/>
</linearGradient>
<linearGradient id="paint8_linear_212_6633" x1="1512" y1="454.37" x2="1355.59" y2="-133.938" gradientUnits="userSpaceOnUse">
<stop stop-color="#EE0979"/>
<stop offset="1" stop-color="#FF6A00"/>
</linearGradient>
<linearGradient id="paint9_linear_212_6633" x1="1512" y1="453.547" x2="1345.02" y2="-152.856" gradientUnits="userSpaceOnUse">
<stop stop-color="#EE0979"/>
<stop offset="1" stop-color="#FF6A00"/>
</linearGradient>
<linearGradient id="paint10_linear_212_6633" x1="1512" y1="452.753" x2="1334.15" y2="-171.536" gradientUnits="userSpaceOnUse">
<stop stop-color="#EE0979"/>
<stop offset="1" stop-color="#FF6A00"/>
</linearGradient>
<linearGradient id="paint11_linear_212_6633" x1="1512" y1="451.988" x2="1322.98" y2="-189.969" gradientUnits="userSpaceOnUse">
<stop stop-color="#EE0979"/>
<stop offset="1" stop-color="#FF6A00"/>
</linearGradient>
<linearGradient id="paint12_linear_212_6633" x1="1512" y1="451.249" x2="1311.51" y2="-208.145" gradientUnits="userSpaceOnUse">
<stop stop-color="#EE0979"/>
<stop offset="1" stop-color="#FF6A00"/>
</linearGradient>
<linearGradient id="paint13_linear_212_6633" x1="1512" y1="450.535" x2="1299.77" y2="-226.055" gradientUnits="userSpaceOnUse">
<stop stop-color="#EE0979"/>
<stop offset="1" stop-color="#FF6A00"/>
</linearGradient>
<linearGradient id="paint14_linear_212_6633" x1="1512" y1="449.845" x2="1287.76" y2="-243.69" gradientUnits="userSpaceOnUse">
<stop stop-color="#EE0979"/>
<stop offset="1" stop-color="#FF6A00"/>
</linearGradient>
<linearGradient id="paint15_linear_212_6633" x1="1512" y1="449.177" x2="1275.48" y2="-261.044" gradientUnits="userSpaceOnUse">
<stop stop-color="#EE0979"/>
<stop offset="1" stop-color="#FF6A00"/>
</linearGradient>
<linearGradient id="paint16_linear_212_6633" x1="1512" y1="448.531" x2="1262.96" y2="-278.109" gradientUnits="userSpaceOnUse">
<stop stop-color="#EE0979"/>
<stop offset="1" stop-color="#FF6A00"/>
</linearGradient>
<linearGradient id="paint17_linear_212_6633" x1="1512" y1="447.906" x2="1250.19" y2="-294.879" gradientUnits="userSpaceOnUse">
<stop stop-color="#EE0979"/>
<stop offset="1" stop-color="#FF6A00"/>
</linearGradient>
<linearGradient id="paint18_linear_212_6633" x1="1512" y1="447.301" x2="1237.2" y2="-311.348" gradientUnits="userSpaceOnUse">
<stop stop-color="#EE0979"/>
<stop offset="1" stop-color="#FF6A00"/>
</linearGradient>
<linearGradient id="paint19_linear_212_6633" x1="1512" y1="446.714" x2="1223.98" y2="-327.51" gradientUnits="userSpaceOnUse">
<stop stop-color="#EE0979"/>
<stop offset="1" stop-color="#FF6A00"/>
</linearGradient>
<linearGradient id="paint20_linear_212_6633" x1="1512" y1="446.145" x2="1210.55" y2="-343.361" gradientUnits="userSpaceOnUse">
<stop stop-color="#EE0979"/>
<stop offset="1" stop-color="#FF6A00"/>
</linearGradient>
<linearGradient id="paint21_linear_212_6633" x1="1512" y1="445.593" x2="1196.93" y2="-358.897" gradientUnits="userSpaceOnUse">
<stop stop-color="#EE0979"/>
<stop offset="1" stop-color="#FF6A00"/>
</linearGradient>
<linearGradient id="paint22_linear_212_6633" x1="1512" y1="445.057" x2="1183.11" y2="-374.114" gradientUnits="userSpaceOnUse">
<stop stop-color="#EE0979"/>
<stop offset="1" stop-color="#FF6A00"/>
</linearGradient>
<linearGradient id="paint23_linear_212_6633" x1="1512" y1="444.537" x2="1169.11" y2="-389.008" gradientUnits="userSpaceOnUse">
<stop stop-color="#EE0979"/>
<stop offset="1" stop-color="#FF6A00"/>
</linearGradient>
<linearGradient id="paint24_linear_212_6633" x1="1512" y1="444.032" x2="1154.95" y2="-403.577" gradientUnits="userSpaceOnUse">
<stop stop-color="#EE0979"/>
<stop offset="1" stop-color="#FF6A00"/>
</linearGradient>
<linearGradient id="paint25_linear_212_6633" x1="1512" y1="443.541" x2="1140.63" y2="-417.82" gradientUnits="userSpaceOnUse">
<stop stop-color="#EE0979"/>
<stop offset="1" stop-color="#FF6A00"/>
</linearGradient>
<linearGradient id="paint26_linear_212_6633" x1="1512" y1="443.064" x2="1126.16" y2="-431.732" gradientUnits="userSpaceOnUse">
<stop stop-color="#EE0979"/>
<stop offset="1" stop-color="#FF6A00"/>
</linearGradient>
<linearGradient id="paint27_linear_212_6633" x1="1512" y1="442.6" x2="1111.55" y2="-445.315" gradientUnits="userSpaceOnUse">
<stop stop-color="#EE0979"/>
<stop offset="1" stop-color="#FF6A00"/>
</linearGradient>
<linearGradient id="paint28_linear_212_6633" x1="1512" y1="442.149" x2="1096.81" y2="-458.566" gradientUnits="userSpaceOnUse">
<stop stop-color="#EE0979"/>
<stop offset="1" stop-color="#FF6A00"/>
</linearGradient>
<linearGradient id="paint29_linear_212_6633" x1="1512" y1="441.709" x2="1081.96" y2="-471.485" gradientUnits="userSpaceOnUse">
<stop stop-color="#EE0979"/>
<stop offset="1" stop-color="#FF6A00"/>
</linearGradient>
<linearGradient id="paint30_linear_212_6633" x1="1512" y1="441.281" x2="1067" y2="-484.072" gradientUnits="userSpaceOnUse">
<stop stop-color="#EE0979"/>
<stop offset="1" stop-color="#FF6A00"/>
</linearGradient>
<linearGradient id="paint31_linear_212_6633" x1="1512" y1="440.865" x2="1051.94" y2="-496.327" gradientUnits="userSpaceOnUse">
<stop stop-color="#EE0979"/>
<stop offset="1" stop-color="#FF6A00"/>
</linearGradient>
<linearGradient id="paint32_linear_212_6633" x1="1512" y1="440.459" x2="1036.79" y2="-508.252" gradientUnits="userSpaceOnUse">
<stop stop-color="#EE0979"/>
<stop offset="1" stop-color="#FF6A00"/>
</linearGradient>
<linearGradient id="paint33_linear_212_6633" x1="1512" y1="440.063" x2="1021.56" y2="-519.846" gradientUnits="userSpaceOnUse">
<stop stop-color="#EE0979"/>
<stop offset="1" stop-color="#FF6A00"/>
</linearGradient>
<linearGradient id="paint34_linear_212_6633" x1="1512" y1="439.678" x2="1006.26" y2="-531.111" gradientUnits="userSpaceOnUse">
<stop stop-color="#EE0979"/>
<stop offset="1" stop-color="#FF6A00"/>
</linearGradient>
<linearGradient id="paint35_linear_212_6633" x1="1512" y1="439.301" x2="990.9" y2="-542.049" gradientUnits="userSpaceOnUse">
<stop stop-color="#EE0979"/>
<stop offset="1" stop-color="#FF6A00"/>
</linearGradient>
<linearGradient id="paint36_linear_212_6633" x1="1512" y1="438.935" x2="975.488" y2="-552.662" gradientUnits="userSpaceOnUse">
<stop stop-color="#EE0979"/>
<stop offset="1" stop-color="#FF6A00"/>
</linearGradient>
</defs>
</svg>
